<svg width="40" height="40" viewBox="0 0 40 40" fill="none" xmlns="http://www.w3.org/2000/svg">
<path d="M30.5 13.1328C29.656 13.4995 28.763 13.7412 27.8492 13.85C28.8095 13.2877 29.5317 12.3943 29.8803 11.3375C28.9724 11.8684 27.9807 12.2409 26.9478 12.4391C26.5129 11.9832 25.9897 11.6206 25.4103 11.3732C24.8308 11.1258 24.2071 10.9988 23.577 11C21.0261 11 18.9617 13.0344 18.9617 15.5422C18.9599 15.891 18.9999 16.2388 19.0808 16.5781C17.2516 16.4924 15.4604 16.0258 13.8219 15.2081C12.1833 14.3904 10.7335 13.2398 9.56516 11.8297C9.15527 12.5207 8.9385 13.3091 8.9375 14.1125C8.9375 15.6875 9.75922 17.0797 11 17.8953C10.2649 17.8779 9.54481 17.6833 8.90094 17.3281V17.3844C8.90094 19.5875 10.4947 21.4203 12.6041 21.8375C12.2074 21.9432 11.7986 21.9968 11.3881 21.9969C11.0968 21.9974 10.8062 21.9691 10.5205 21.9125C11.1069 23.7172 12.8136 25.0297 14.8353 25.0672C13.1925 26.3333 11.1756 27.0175 9.10156 27.0125C8.73341 27.012 8.36561 26.99 8 26.9469C10.1099 28.2942 12.5626 29.0068 15.0659 29C23.5672 29 28.2116 22.0766 28.2116 16.0719C28.2116 15.875 28.2064 15.6781 28.197 15.4859C29.0985 14.8447 29.8783 14.0479 30.5 13.1328Z" fill="white"/>
</svg>
